<mxfile host="192.168.2.113" agent="Mozilla/5.0 (Windows NT 10.0; Win64; x64) AppleWebKit/537.36 (KHTML, like Gecko) Chrome/129.0.0.0 Safari/537.36 Edg/129.0.0.0" version="24.7.8">
  <diagram name="Page-1" id="5f0bae14-7c28-e335-631c-24af17079c00">
    <mxGraphModel dx="419" dy="628" grid="1" gridSize="10" guides="1" tooltips="1" connect="1" arrows="1" fold="1" page="1" pageScale="1" pageWidth="1100" pageHeight="850" background="none" math="0" shadow="0">
      <root>
        <mxCell id="0" />
        <mxCell id="1" parent="0" />
        <mxCell id="It7IR9NAfHF9SP1xL8_8-9" style="edgeStyle=orthogonalEdgeStyle;rounded=0;orthogonalLoop=1;jettySize=auto;html=1;exitX=1;exitY=0.25;exitDx=0;exitDy=0;" edge="1" parent="1" source="It7IR9NAfHF9SP1xL8_8-6">
          <mxGeometry relative="1" as="geometry">
            <mxPoint x="690" y="305.0857142857143" as="targetPoint" />
          </mxGeometry>
        </mxCell>
        <mxCell id="It7IR9NAfHF9SP1xL8_8-6" value="浏览器" style="rounded=0;whiteSpace=wrap;html=1;" vertex="1" parent="1">
          <mxGeometry x="460" y="290" width="120" height="60" as="geometry" />
        </mxCell>
        <mxCell id="It7IR9NAfHF9SP1xL8_8-7" value="&lt;h6&gt;&lt;font face=&quot;Helvetica&quot;&gt;客户端&lt;/font&gt;&lt;/h6&gt;" style="text;strokeColor=none;fillColor=none;html=1;fontSize=24;fontStyle=1;verticalAlign=middle;align=center;" vertex="1" parent="1">
          <mxGeometry x="480" y="270" width="80" height="20" as="geometry" />
        </mxCell>
        <mxCell id="It7IR9NAfHF9SP1xL8_8-19" style="edgeStyle=orthogonalEdgeStyle;rounded=0;orthogonalLoop=1;jettySize=auto;html=1;exitX=0;exitY=0.75;exitDx=0;exitDy=0;entryX=1;entryY=0.75;entryDx=0;entryDy=0;" edge="1" parent="1" source="It7IR9NAfHF9SP1xL8_8-11" target="It7IR9NAfHF9SP1xL8_8-6">
          <mxGeometry relative="1" as="geometry" />
        </mxCell>
        <mxCell id="It7IR9NAfHF9SP1xL8_8-11" value="Django" style="rounded=0;whiteSpace=wrap;html=1;" vertex="1" parent="1">
          <mxGeometry x="690" y="290" width="120" height="60" as="geometry" />
        </mxCell>
        <mxCell id="It7IR9NAfHF9SP1xL8_8-12" value="&lt;h6&gt;&lt;font face=&quot;Helvetica&quot;&gt;服务器端&lt;/font&gt;&lt;/h6&gt;" style="text;strokeColor=none;fillColor=none;html=1;fontSize=24;fontStyle=1;verticalAlign=middle;align=center;" vertex="1" parent="1">
          <mxGeometry x="710" y="270" width="80" height="20" as="geometry" />
        </mxCell>
        <mxCell id="It7IR9NAfHF9SP1xL8_8-18" value="request" style="text;align=center;fontStyle=1;verticalAlign=middle;spacingLeft=3;spacingRight=3;strokeColor=none;rotatable=0;points=[[0,0.5],[1,0.5]];portConstraint=eastwest;html=1;" vertex="1" parent="1">
          <mxGeometry x="590" y="280" width="80" height="26" as="geometry" />
        </mxCell>
        <mxCell id="It7IR9NAfHF9SP1xL8_8-20" value="response" style="text;align=center;fontStyle=1;verticalAlign=middle;spacingLeft=3;spacingRight=3;strokeColor=none;rotatable=0;points=[[0,0.5],[1,0.5]];portConstraint=eastwest;html=1;" vertex="1" parent="1">
          <mxGeometry x="590" y="330" width="80" height="26" as="geometry" />
        </mxCell>
        <mxCell id="It7IR9NAfHF9SP1xL8_8-27" style="edgeStyle=orthogonalEdgeStyle;rounded=0;orthogonalLoop=1;jettySize=auto;html=1;exitX=1;exitY=0.5;exitDx=0;exitDy=0;" edge="1" parent="1" source="It7IR9NAfHF9SP1xL8_8-21">
          <mxGeometry relative="1" as="geometry">
            <mxPoint x="1050" y="214.8571428571429" as="targetPoint" />
          </mxGeometry>
        </mxCell>
        <mxCell id="It7IR9NAfHF9SP1xL8_8-21" value="request调度器" style="html=1;whiteSpace=wrap;" vertex="1" parent="1">
          <mxGeometry x="860" y="190" width="110" height="50" as="geometry" />
        </mxCell>
        <mxCell id="It7IR9NAfHF9SP1xL8_8-22" value="request" style="html=1;verticalAlign=bottom;endArrow=block;curved=0;rounded=0;" edge="1" parent="1">
          <mxGeometry width="80" relative="1" as="geometry">
            <mxPoint x="780" y="214.70999999999998" as="sourcePoint" />
            <mxPoint x="860" y="214.70999999999998" as="targetPoint" />
          </mxGeometry>
        </mxCell>
        <mxCell id="It7IR9NAfHF9SP1xL8_8-29" value="urls.py" style="swimlane;fontStyle=1;align=center;verticalAlign=top;childLayout=stackLayout;horizontal=1;startSize=26;horizontalStack=0;resizeParent=1;resizeParentMax=0;resizeLast=0;collapsible=1;marginBottom=0;whiteSpace=wrap;html=1;" vertex="1" parent="1">
          <mxGeometry x="1050" y="160" width="160" height="90" as="geometry" />
        </mxCell>
        <mxCell id="It7IR9NAfHF9SP1xL8_8-30" value="+ request: url" style="text;strokeColor=none;fillColor=none;align=left;verticalAlign=top;spacingLeft=4;spacingRight=4;overflow=hidden;rotatable=0;points=[[0,0.5],[1,0.5]];portConstraint=eastwest;whiteSpace=wrap;html=1;" vertex="1" parent="It7IR9NAfHF9SP1xL8_8-29">
          <mxGeometry y="26" width="160" height="26" as="geometry" />
        </mxCell>
        <mxCell id="It7IR9NAfHF9SP1xL8_8-31" value="" style="line;strokeWidth=1;fillColor=none;align=left;verticalAlign=middle;spacingTop=-1;spacingLeft=3;spacingRight=3;rotatable=0;labelPosition=right;points=[];portConstraint=eastwest;strokeColor=inherit;" vertex="1" parent="It7IR9NAfHF9SP1xL8_8-29">
          <mxGeometry y="52" width="160" height="8" as="geometry" />
        </mxCell>
        <mxCell id="It7IR9NAfHF9SP1xL8_8-32" value="匹配到对应的视图程序&lt;div&gt;&lt;br&gt;&lt;/div&gt;" style="text;strokeColor=none;fillColor=none;align=left;verticalAlign=top;spacingLeft=4;spacingRight=4;overflow=hidden;rotatable=0;points=[[0,0.5],[1,0.5]];portConstraint=eastwest;whiteSpace=wrap;html=1;" vertex="1" parent="It7IR9NAfHF9SP1xL8_8-29">
          <mxGeometry y="60" width="160" height="30" as="geometry" />
        </mxCell>
      </root>
    </mxGraphModel>
  </diagram>
</mxfile>
